<?xml version="1.0"?>

  <svg xmlns="http://www.w3.org/2000/svg" xmlns:xlink="http://www.w3.org/1999/xlink">

 <title>Football Helmet</title>
 <defs>
  <linearGradient id="linearGradient3896">
   <stop stop-color="#ffffff" offset="0" id="stop3898"/>
   <stop stop-color="#c5c5c5" offset="0.761421" id="stop3902"/>
   <stop stop-color="#5d5d5d" offset="1" id="stop3900"/>
  </linearGradient>
  <linearGradient xlink:href="#linearGradient3896" id="linearGradient3894" y2="0.841976" x2="0.758077" y1="0.301177" x1="0.478432"/>
 </defs>

  <title>Layer 1</title>

  <path fill="#ff5000" id="path3782" d="m943.425964,837.525574c7.932922,1.983276 18.510193,-12.560486 19.832336,-31.070679c1.322205,-18.510193 3.966492,-64.124573 3.966492,-101.144958c0,-37.020447 -5.288635,-78.668396 -9.255127,-94.534241c-3.966431,-15.865906 -21.510559,-33.554932 -27.104187,-19.171265c-4.627563,11.899414 0.924988,13.882629 4.891418,31.070679c3.966492,17.188049 11.635559,57.513794 11.635559,102.467163c0,44.953308 -1.983276,65.446777 -1.983276,76.685059c0,11.238342 -7.932922,9.255127 -9.916138,11.899414c-1.983276,2.644348 -5.288635,7.271912 -4.627563,13.221619c0.661072,5.949646 12.560486,10.577209 12.560486,10.577209z"/>
  <path fill="#ff5000" id="path3784" d="m716.88916,392.656158c6.55957,16.763306 37.899597,101.308624 44.459167,124.631439c6.55957,23.322876 6.758057,23.276855 10.203735,30.611267c1.641479,3.493958 4.87262,4.7948 11.661438,5.101868c10.945679,0.495178 44.459167,0 72.155029,2.915344c27.695923,2.915344 48.241394,8.340271 62.226685,17.145752c13.985229,8.805542 24.862671,22.272827 27.452515,29.00647c2.589844,6.733643 -3.625793,9.841492 -9.841492,8.287537c-6.215637,-1.553894 -10.87738,-6.215637 -17.093079,-12.431335c-6.215637,-6.215637 -26.934509,-16.575073 -55.423035,-20.200928c-28.488464,-3.625793 -75.105957,-6.733643 -77.177856,-6.733643c-2.071899,0 -3.625793,-0.517944 -3.107788,4.661743c0.517944,5.179749 3.625793,16.575134 5.179688,19.682983c1.553894,3.107849 1.553894,4.143799 10.359436,4.143799c8.805542,0 56.976929,4.143738 71.480164,5.179688c14.503235,1.03595 33.668213,6.733643 45.581543,10.877441c11.913391,4.143738 26.416626,12.94928 32.632263,18.646973c6.215698,5.697693 9.841492,13.467285 9.841492,19.682983c0,6.215637 -1.553894,13.467224 -5.697693,19.164978c-4.143799,5.697693 -9.323486,6.215637 -13.467285,3.107788c-4.143799,-3.107788 -12.94928,-2.589844 -7.769592,-12.94928c5.179749,-10.359436 -0.517944,-19.682983 -17.093079,-25.380676c-16.575134,-5.697693 -51.279236,-16.057129 -80.285706,-18.129028c-29.006409,-2.071838 -32.632202,-1.03595 -32.632202,-1.03595c0,0 -5.311646,0.034546 -3.625854,6.215698c4.661743,17.093079 11.395386,42.991699 13.985291,51.279236c2.589844,8.287598 13.444702,29.413391 25.898621,41.437805c15.021179,14.503235 51.79718,36.776001 68.890259,51.279236c17.093079,14.503235 27.97052,32.632263 33.150269,43.509644c5.179688,10.877441 6.215637,11.913391 7.251587,18.129089c1.03595,6.215637 -1.553894,15.021179 -5.179749,14.503174c-3.625793,-0.517944 -8.805481,6.733643 -15.021179,-12.94928c-6.215637,-19.682983 -14.503235,-35.222107 -39.365906,-54.387085c-24.862671,-19.164978 -37.294006,-30.560364 -52.83313,-41.437805c-11.790222,-8.253174 -23.308777,-18.646973 -30.042419,-31.596313c-6.733643,-12.94928 -16.054749,-40.13269 -21.236816,-62.156677c-4.143799,-17.611023 -6.733643,-22.790771 -13.985291,-23.308716c-10.346008,-0.739014 -44.027649,1.03595 -58.012878,0.517944c-13.985229,-0.517944 -27.97052,-0.517944 -42.991699,-1.553894c-15.021179,-1.03595 -25.380615,-18.646973 -3.107849,-19.682922c22.272827,-1.03595 98.414734,0.517944 101.522583,0c3.107849,-0.518005 3.625793,-1.553955 2.071899,-5.179749c-1.553955,-3.625793 -5.697693,-19.164978 -6.733643,-21.754822c-1.03595,-2.589844 -7.769592,-0.518005 -14.503235,-1.553955c-6.733643,-1.035889 -19.164978,-7.769531 -33.150208,-45.581543c-13.985291,-37.811951 -33.150269,-27.97049 -33.150269,-27.97049c0,0 -2.589844,4.661774 -17.611023,5.179718c-15.021179,0.517944 -18.647034,-8.805511 -10.359436,-12.431335c8.287537,-3.625793 24.862671,-10.359436 36.776001,-11.913361c11.913391,-1.553894 24.344727,4.143799 29.00647,14.503235c4.661743,10.359406 18.646973,40.91983 22.790771,47.653473c4.143799,6.733643 3.285583,5.57196 6.215637,7.769531c6.215698,4.661743 7.251648,0 1.553955,-12.94928c-5.697693,-12.94928 -18.129028,-56.458984 -23.826721,-67.85437c-5.697693,-11.395386 -21.236877,-56.458954 -26.416626,-69.408264c-5.179688,-12.94931 6.733643,-22.790802 11.913391,-14.503235c5.179749,8.287537 6.482849,10.208099 6.482849,10.208099z"/>
  <path fill="#878787" stroke="#4c4c4c" stroke-width="1px" id="path4390" d="m586.5625,400.5c-16.028931,0.022614 -32.590088,0.750458 -49.0625,2.53125c-87.852936,9.49762 -257.641693,86.678619 -324.125,175.71875c-66.483307,89.040161 -5.9375,169.75 -5.9375,169.75c0,0 19.004776,34.432739 38,15.4375c18.995239,-18.995239 86.663116,-55.784241 113.96875,-67.65625c27.305664,-11.872009 72.419067,-24.929138 123.46875,8.3125c51.049683,33.241638 99.728577,39.15625 138.90625,39.15625c39.177673,0 83.096436,-33.228882 93.78125,-73.59375c10.684814,-40.364868 -9.50116,-74.794067 -14.25,-125.84375c-4.748779,-51.049683 7.12677,-98.539307 14.25,-130.59375c0,0 -59.541138,-13.316711 -129,-13.21875zm-47.125,113.75c12.563782,0.057861 25.876831,5.095032 36.15625,14.75c18.274475,17.164368 20.014648,42.447388 3.875,56.46875c-16.139648,14.021362 -44.038025,11.476868 -62.3125,-5.6875c-18.274475,-17.164368 -20.014618,-42.447388 -3.875,-56.46875c7.061096,-6.134399 16.384399,-9.107544 26.15625,-9.0625z"/>
  <path fill="#000054" stroke="#a7a7a7" id="path4388" d="m397.84375,114.34375c-143.992599,0.267326 -274.139954,114.998016 -314.625,198.28125c-45.737179,94.087585 -46.273499,187.555664 -15.40625,284.90625c30.867249,97.350525 64.097321,135.353882 78.34375,175.71875c14.246414,40.364868 28.502396,32.0625 38,32.0625c9.49762,0 29.666977,-9.493713 72.40625,15.4375c64.02478,37.347778 127.042877,60.53125 173.34375,60.53125c46.300873,0 85.479187,-8.294067 127.03125,-59.34375c41.552063,-51.049683 4.745544,-111.604187 -13.0625,-153.15625c-17.808044,-41.552063 -14.245544,-74.790161 3.5625,-110.40625c17.808044,-35.616089 66.965332,-60.800201 102.09375,-71.25c42.032104,-12.503479 70.735901,-27.486542 104.833984,-42.739624c34.498718,-15.432281 35.257996,-34.420502 28.134766,-49.854126c-7.12323,-15.433624 -36.81488,-65.285706 -46.3125,-83.09375c-9.49762,-17.808014 -72.411011,-197.587463 -338.34375,-197.09375zm-72.375,546c12.563812,0.057922 25.876862,5.095032 36.15625,14.75c18.274475,17.164368 20.014618,42.447388 3.875,56.46875c-16.139618,14.021362 -44.038025,11.445618 -62.3125,-5.71875c-18.274475,-17.164368 -20.014618,-42.447388 -3.875,-56.46875c7.061096,-6.134338 16.384399,-9.076294 26.15625,-9.03125z"/>
  <path fill="url(#linearGradient3894)" stroke="#cecece" stroke-width="1px" id="path3786" d="m652.518921,346.142242c27.920959,-11.861511 50.300171,-19.685974 64.263916,-25.003967c15.677124,-5.970551 24.765869,-17.086914 33.502991,1.526917c11.307068,24.088959 24.897095,51.376923 32.463074,63.466003c6.845154,10.937378 5.621277,27.592865 0.979736,35.900726c-6.983215,12.499207 -20.422363,20.12323 -28.417297,23.549622c-7.994873,3.426392 -48.281616,23.007599 -69.216858,30.513916c-12.127808,4.348419 7.85675,-8.936554 0.477234,-21.182739c-5.678894,-9.424133 -21.434814,-20.902191 -29.048218,-37.748505c-23.747498,-52.546478 -26.022156,-61.578156 -5.004578,-71.021973z"/>
  <path fill="#ff5000" id="path2990" d="m779.533691,387.878845c-16.945068,11.202332 -68.44165,36.626923 -97.689941,50.496155c-28.619812,13.565979 -122.779419,59.382629 -147.90625,71.375c-25.126831,11.99231 -40.541901,17.13562 -50.25,26.84375c-9.708099,9.70813 -43.953705,45.669434 -55.375,59.375c-11.421295,13.705566 -13.715729,17.147217 -16,24c-2.284241,6.852783 -7.437042,16.549988 -13.71875,31.96875c-6.281708,15.418762 -29.118988,71.95929 -33.6875,85.09375c-4.568512,13.13446 -5.693512,14.848877 -1.125,22.84375c4.568512,7.994873 6.263672,3.434509 13.6875,5.71875c7.423828,2.284241 40.561127,18.851868 59.40625,24.5625c18.845123,5.710632 33.129913,6.284241 82.8125,4c27.840332,-1.280029 52.278015,-3.491943 76.71875,-6.0625c2.359802,5.936951 9.08728,22.916931 15.5,40.40625c7.635437,20.823975 24.978943,61.088013 63.15625,71.5c38.177307,10.411987 84.694885,13.1875 116.625,13.1875c31.930115,0 90.211121,-7.63446 104.09375,-13.1875c13.882629,-5.55304 42.264221,-13.379517 50,-43.03125c4.055908,-15.546509 1.884521,-25.297729 -2.079529,-35.17041c-3.372192,-8.398682 -21.002197,-0.193237 -17.214478,9.737183c5.851868,15.342224 -0.165161,28.889587 -17.518494,39.995728c-17.353333,11.10614 -72.868103,20.84375 -119.375,20.84375c-46.506897,0 -81.211121,-3.47345 -95.09375,-6.25c-13.882629,-2.77655 -39.572815,-14.59259 -54.84375,-50.6875c-10.679626,-25.242676 -17.382874,-41.783569 -20.59375,-49.78125c11.816162,-1.319275 23.861023,-2.688599 36.53125,-4.0625c47.398315,-5.139587 105.649597,-18.871094 158.1875,-33.71875c52.537903,-14.847656 106.780334,-43.96228 119.34375,-54.8125c12.563416,-10.85022 26.989502,-22.318665 24.5625,-38.84375c-0.954895,-6.501892 -4.35675,-7.994507 -9,-7.15625c-4.042908,0.729919 -6.90387,5.686462 -17.125,16.40625c-22.553833,23.654114 -42.838013,30.789185 -63.15625,39.59375c-10.721863,4.646118 -49.937378,19.889587 -112.4375,34.5c-62.500122,14.610413 -130.665955,23.125 -140.40625,23.125c-9.740295,0 -8.989319,-4.717896 -11.1875,-9.9375c-2.75531,-6.542358 -2.791504,-7.978821 -3.4375,-11.15625c-0.97699,-4.805542 -0.55127,-6.500427 6.09375,-6.90625c11.754578,-0.717896 86.424683,-10.379395 110.21875,-14.875c45.737793,-8.641663 86.735352,-21.255249 103.375,-26.53125c37.068909,-12.382385 65.58667,-24.840332 96.75,-44.59375c10.69458,-7.126709 21.536377,-16.256592 28,-26.34375c6.985107,-10.90094 -0.266968,-25.243652 -12.8125,-36.34375c-12.096863,-10.703125 -21.71875,-4.577087 -21.71875,0.5625c0,5.139587 2.303467,8.579163 9.15625,13.71875c6.852783,5.139587 5.693542,11.982422 1.125,19.40625c-4.568481,7.423828 -11.389404,11.435059 -30.96875,22.3125c-19.579346,10.87738 -63.630371,26.666443 -95.71875,37c-32.088379,10.333557 -63.075684,16.305298 -88.09375,20.65625c-25.018066,4.350952 -94.641846,11.974731 -103.34375,13.0625c-8.701965,1.087769 -15.762024,4.332336 -17.9375,-0.5625c-2.175476,-4.894836 -2.198914,-8.133972 -7.09375,-23.90625c-4.894836,-15.772278 -53.970337,-128.605164 -57.0625,-135.5625c-3.092163,-6.957336 -2.310913,-7.703918 0.78125,-9.25c3.092163,-1.546082 8.563232,-4.344116 31.34375,-14.46875c22.780518,-10.124634 72.296936,-38.550842 123.1875,-61.59375c33.792725,-15.301117 100.86438,-46.801056 120.242432,-64.493622c7.499268,-6.846954 0.084045,-24.24881 -16.92749,-13.002533zm-280.596191,168.621155c1.394653,0.025696 2.432648,0.855652 2.84375,2.5c0.939636,3.758545 23.474426,53.065308 34.75,79.375c11.275574,26.309692 23.965576,61.084167 25.375,65.3125c1.409424,4.228333 4.731323,9.18219 -2.8125,9.875c-4.384949,0.40271 -11.74823,7.514587 -26.3125,-12.6875c-14.564331,-20.202087 -23.016327,-32.88916 -29.59375,-40.40625c-6.577423,-7.517029 -12.216949,-15.516357 -26.78125,-22.09375c-14.564301,-6.577454 -31.491455,-14.090576 -35.25,-15.5c-3.758545,-1.409424 -8.453491,-3.736145 -1.40625,-9.84375c7.047241,-6.107605 24.919373,-26.324585 32.90625,-34.78125c7.986877,-8.456665 19.71875,-17.84375 19.71875,-17.84375c2.378448,-2.6427 4.769379,-3.93927 6.5625,-3.90625zm-70.1875,86.53125c0.506409,0.032776 1.040863,0.190796 1.625,0.46875c7.227631,3.439087 34.474426,16.544006 39.84375,18.78125c5.369324,2.237244 11.169006,9.829529 23.25,25.9375c12.080994,16.107971 27.744324,38.482971 32.21875,42.0625c4.474426,3.579529 13.863647,8.957397 22.8125,8.0625c8.948853,-0.894897 27.30542,-4.917603 30.4375,4.03125c3.13208,8.948853 6.71875,19.241455 6.71875,21.03125c0,1.789795 2.221619,5.365051 -4.9375,5.8125c-7.159119,0.447449 -64.862183,3.136353 -82.3125,4.03125c-17.450317,0.894897 -32.234344,3.125 -56.84375,-6.71875c-24.609406,-9.84375 -42.931824,-16.116455 -47.40625,-17.90625c-4.474426,-1.789795 -11.201721,-1.328125 -4.9375,-16.09375c6.264221,-14.765625 24.170441,-59.498596 27.75,-68c3.579559,-8.501404 3.676208,-8.821167 5.125,-12.75c1.372284,-3.721375 3.111359,-8.979919 6.65625,-8.75z"/>
  <path fill="#ff5000" id="path3780" d="m862.17041,658.37207c-1.789795,5.816711 -1.789795,11.516602 0.447449,12.858887c2.237183,1.342346 11.04657,0.028931 25.504272,49.218872c3.591003,12.217651 10.291199,70.696106 10.291199,86.804077c0,16.108032 0.447449,80.092468 -0.894836,83.671997c-1.342346,3.57959 -3.132141,8.948914 2.684631,8.501465c5.816772,-0.447449 11.633545,-1.342346 15.660522,-6.71167c4.027039,-5.369324 1.789795,-49.66626 1.789795,-87.698975c0,-38.032776 -6.264221,-79.197571 -14.318176,-101.569763c-8.054016,-22.372192 -14.765686,-42.059753 -22.372192,-47.876526c-7.606567,-5.816772 -17.432251,-1.619812 -18.792664,2.801636z"/>
  <path fill="#bfbfbf" stroke="#cecece" stroke-width="2.2" stroke-miterlimit="4" id="path3788" d="m710.529541,449.292328c0,0 11.77832,-3.804291 7.140076,-14.626801c-2.940552,-6.861359 -6.184265,-9.662964 -11.982056,-8.889923c-4.597534,0.612976 -4.251709,-1.546082 -8.116882,-7.730408c-3.865234,-6.184296 -8.503418,-12.368591 -1.932617,-16.6203c8.29248,-5.365692 16.233826,-8.116882 19.712463,-10.0495c3.478699,-1.932587 4.638245,2.705658 7.730408,7.343872c3.716858,5.187927 4.644531,11.079742 10.435974,9.662964c6.325134,-1.547333 11.641113,1.637177 14.687744,9.276459c2.241089,5.619568 4.373535,11.656494 -5.289429,17.067749c-7.295593,4.085541 -18.531921,10.375092 -23.943176,13.467255c-5.411316,3.092133 -8.442505,1.098633 -8.442505,1.098633z"/>
  <path fill="#bfbfbf" stroke="#cecece" stroke-width="2.2" stroke-miterlimit="4" id="path3796" d="m756.809814,425.442139c0,0 11.413391,-3.688873 6.918884,-14.183075c-2.849487,-6.653198 -5.992737,-9.369843 -11.61084,-8.620239c-4.455139,0.594391 -4.119995,-1.499207 -7.865417,-7.49588c-3.745422,-5.996704 -8.23999,-11.993408 -1.872742,-16.116119c8.035583,-5.202942 14.388489,-5.633453 17.759399,-7.507416c3.370911,-1.873993 4.494507,2.623535 7.490845,7.121063c3.601746,5.030548 2.263428,10.743652 7.875427,9.369843c6.129211,-1.500397 10.385559,2.034943 13.337769,9.442474c2.171692,5.449097 2.448303,9.513123 -5.572937,14.760223c-6.781799,4.43631 -13.035889,9.165466 -18.27948,12.163818c-5.243652,2.998352 -8.180908,1.065308 -8.180908,1.065308z"/>
  <path fill="#7f7f7f" fill-opacity="0.531073" stroke="#cecece" stroke-width="2.2" stroke-miterlimit="4" id="path3860" d="m390.900116,670.805908c0,0 -1.879272,-1.409424 -6.577423,1.879272c-4.698151,3.288696 -13.154846,32.887146 -15.973755,38.524902c-2.818878,5.637817 -4.698151,12.685059 -1.879272,16.443542c2.818909,3.758545 11.745422,9.396362 17.853027,8.456726c6.107605,-0.939636 7.986877,-7.047241 12.685028,-6.107605c4.698181,0.939636 17.383209,7.517029 24.43045,10.335938c7.047241,2.818909 36.64566,10.805786 48.391052,-7.047241c11.745392,-17.853027 -1.879272,-32.887146 -17.853027,-39.464539c-15.973724,-6.577454 -33.826752,-12.21521 -37.115448,-13.624695c-3.288727,-1.409424 -5.167999,2.349121 -9.86615,2.818909c-4.698151,0.469849 -8.456696,-0.469788 -12.21521,-4.228333c-3.758545,-3.758545 -1.879272,-7.986877 -1.879272,-7.986877z"/>
  <path fill="#bdbdbd" fill-rule="nonzero" id="path3862" d="m454.27948,724.77771c-2.57486,8.396667 -13.008087,12.640625 -23.298615,9.477356c-10.290527,-3.163269 -16.5383,-12.534973 -13.951996,-20.928162c2.57486,-8.396667 13.008087,-12.640686 23.298615,-9.477356c10.290527,3.163269 16.5383,12.534973 13.951996,20.928162z"/>
</svg>
